<svg version="1.1" viewBox="0.0 0.0 188.9763779527559 188.9763779527559" fill="none" stroke="none" stroke-linecap="square" stroke-miterlimit="10" xmlns:xlink="http://www.w3.org/1999/xlink" xmlns="http://www.w3.org/2000/svg"><clipPath id="p.0"><path d="m0 0l188.97638 0l0 188.97638l-188.97638 0l0 -188.97638z" clip-rule="nonzero"/></clipPath><g clip-path="url(#p.0)"><path fill="#000000" fill-opacity="0.0" d="m0 0l188.97638 0l0 188.97638l-188.97638 0z" fill-rule="evenodd"/><path fill="#545454" d="m0 22.032757l0 0c0 -12.168356 9.864401 -22.032757 22.032757 -22.032757l144.91086 0c5.84346 0 11.447571 2.3213015 15.579514 6.4532447c4.1319427 4.131943 6.453247 9.736061 6.453247 15.579512l0 144.91086c0 12.1683655 -9.864395 22.03276 -22.03276 22.03276l-144.91086 0c-12.168356 0 -22.032757 -9.864395 -22.032757 -22.03276z" fill-rule="evenodd"/><path fill="#424242" d="m18.897638 27.590551l0 0c0 -4.8009644 3.8919487 -8.692913 8.692913 -8.692913l0 0c2.3055038 0 4.5165806 0.9158573 6.146818 2.546095c1.6302376 1.6302376 2.5460968 3.8413143 2.5460968 6.146818l0 0c0 4.8009624 -3.8919525 8.692915 -8.692915 8.692915l0 0c-4.8009644 0 -8.692913 -3.8919525 -8.692913 -8.692915z" fill-rule="evenodd"/><path fill="#424242" d="m18.897638 161.38583l0 0c0 -4.8009644 3.8919487 -8.692917 8.692913 -8.692917l0 0c2.3055038 0 4.5165806 0.9158478 6.146818 2.5460968c1.6302376 1.6302338 2.5460968 3.8413086 2.5460968 6.14682l0 0c0 4.800949 -3.8919525 8.692902 -8.692915 8.692902l0 0c-4.8009644 0 -8.692913 -3.8919525 -8.692913 -8.692902z" fill-rule="evenodd"/><path fill="#424242" d="m152.69292 161.38583l0 0c0 -4.8009644 3.8919525 -8.692917 8.692917 -8.692917l0 0c2.3054962 0 4.516571 0.9158478 6.146805 2.5460968c1.630249 1.6302338 2.5460968 3.8413086 2.5460968 6.14682l0 0c0 4.800949 -3.8919525 8.692902 -8.692902 8.692902l0 0c-4.8009644 0 -8.692917 -3.8919525 -8.692917 -8.692902z" fill-rule="evenodd"/><path fill="#424242" d="m152.69292 27.590551l0 0c0 -4.8009644 3.8919525 -8.692913 8.692917 -8.692913l0 0c2.3054962 0 4.516571 0.9158573 6.146805 2.546095c1.630249 1.6302376 2.5460968 3.8413143 2.5460968 6.146818l0 0c0 4.8009624 -3.8919525 8.692915 -8.692902 8.692915l0 0c-4.8009644 0 -8.692917 -3.8919525 -8.692917 -8.692915z" fill-rule="evenodd"/><path fill="#424242" d="m81.04647 130.34172l0 0c0 -1.2348785 1.0010681 -2.2359467 2.2359543 -2.2359467l22.41233 0c0.59300995 0 1.1617355 0.23556519 1.5810547 0.65489197c0.41931915 0.41932678 0.65489197 0.9880371 0.65489197 1.5810547l0 8.9435425c0 1.2348785 -1.0010681 2.2359467 -2.2359467 2.2359467l-22.41233 0c-1.2348862 0 -2.2359543 -1.0010681 -2.2359543 -2.2359467z" fill-rule="evenodd"/><path fill="#424242" d="m81.04647 90.35741l0 0c0 -1.4090576 1.1422653 -2.5513153 2.5513153 -2.5513153l21.781609 0c0.676651 0 1.3255844 0.26879883 1.8040466 0.74726105c0.47846222 0.47846222 0.74726105 1.1274033 0.74726105 1.8040543l0 21.7816c0 1.4090576 -1.1422577 2.5513153 -2.5513077 2.5513153l-21.781609 0c-1.40905 0 -2.5513153 -1.1422577 -2.5513153 -2.5513153z" fill-rule="evenodd"/><path fill="#424242" d="m81.04647 90.042046l0 0c0 -1.2348862 1.0010681 -2.2359543 2.2359543 -2.2359543l49.296555 0c0.5930176 0 1.1617432 0.23557281 1.58107 0.65489197c0.41931152 0.41932678 0.65489197 0.98804474 0.65489197 1.5810623l0 8.943535c0 1.2348862 -1.0010681 2.2359543 -2.235962 2.2359543l-49.296555 0c-1.2348862 0 -2.2359543 -1.0010681 -2.2359543 -2.2359543z" fill-rule="evenodd"/><path fill="#424242" d="m107.9307 50.004383l0 0c0 -1.40905 1.1422653 -2.5513115 2.5513153 -2.5513115l21.781609 0c0.676651 0 1.325592 0.268795 1.8040466 0.74726105c0.47846985 0.47846222 0.7472687 1.1273994 0.7472687 1.8040504l0 48.665836c0 1.4090576 -1.1422577 2.5513153 -2.5513153 2.5513153l-21.781609 0c-1.40905 0 -2.5513153 -1.1422577 -2.5513153 -2.5513153z" fill-rule="evenodd"/><path fill="#424242" d="m54.16224 49.742363l0 0c0 -1.2348824 1.0010681 -2.2359505 2.2359505 -2.2359505l76.180786 0c0.5930176 0 1.1617432 0.23557281 1.58107 0.6548958c0.41931152 0.41932297 0.65489197 0.98804474 0.65489197 1.5810547l0 8.9435425c0 1.2348824 -1.0010681 2.2359505 -2.235962 2.2359505l-76.180786 0c-1.2348824 0 -2.2359505 -1.0010681 -2.2359505 -2.2359505z" fill-rule="evenodd"/><path fill="#424242" d="m54.16224 50.057724l0 0c0 -1.40905 1.1422615 -2.5513115 2.5513153 -2.5513115l21.7816 0c0.676651 0 1.325592 0.26879883 1.8040543 0.74726105c0.47846222 0.47846603 0.74726105 1.1274033 0.74726105 1.8040504l0 21.781609c0 1.40905 -1.1422577 2.5513153 -2.5513153 2.5513153l-21.7816 0c-1.4090538 0 -2.5513153 -1.1422653 -2.5513153 -2.5513153z" fill-rule="evenodd"/></g></svg>