<?xml version="1.0" standalone="no"?>
<!DOCTYPE svg PUBLIC "-//W3C//DTD SVG 20010904//EN"
 "http://www.w3.org/TR/2001/REC-SVG-20010904/DTD/svg10.dtd">
<svg version="1.0" xmlns="http://www.w3.org/2000/svg"
 width="1065.000000pt" height="1065.000000pt" viewBox="0 0 1065.000000 1065.000000"
 preserveAspectRatio="xMidYMid meet">
<metadata>
Created by potrace 1.11, written by Peter Selinger 2001-2013
</metadata>
<g transform="translate(0.000000,1065.000000) scale(0.100000,-0.100000)"
fill="#000000" stroke="none">
<path d="M0 5325 l0 -5325 5325 0 5325 0 0 5325 0 5325 -5325 0 -5325 0 0
-5325z m5022 2596 c104 -35 251 -118 1921 -1084 1688 -976 1814 -1051 1893
-1123 69 -62 91 -89 118 -148 58 -120 68 -211 41 -353 -23 -122 -62 -189 -159
-277 -77 -70 -212 -151 -1892 -1122 -995 -575 -1838 -1058 -1874 -1074 -78
-33 -147 -50 -198 -50 -70 1 -189 28 -247 56 -73 36 -169 124 -212 195 -45 75
-80 206 -82 304 -1 44 -3 80 -4 82 -1 1 -209 -118 -462 -264 -515 -297 -587
-336 -663 -352 -235 -50 -461 58 -579 277 -7 13 -23 60 -35 105 l-23 82 0
2155 0 2155 34 100 c39 116 68 162 146 233 141 129 315 164 504 101 76 -26
192 -88 585 -315 l491 -283 11 112 c13 123 47 237 91 300 71 102 196 186 317
212 104 23 154 19 278 -24z"/>
</g>
</svg>
