<svg version="1.1" viewBox="0.0 0.0 188.9763779527559 188.9763779527559" fill="none" stroke="none" stroke-linecap="square" stroke-miterlimit="10" xmlns:xlink="http://www.w3.org/1999/xlink" xmlns="http://www.w3.org/2000/svg"><clipPath id="p.0"><path d="m0 0l188.97638 0l0 188.97638l-188.97638 0l0 -188.97638z" clip-rule="nonzero"/></clipPath><g clip-path="url(#p.0)"><path fill="#424242" d="m0 0l188.97638 0l0 188.97638l-188.97638 0z" fill-rule="evenodd"/><path fill="#545454" d="m47.181103 47.181103l-47.181103 0l47.181103 -47.181103z" fill-rule="evenodd"/><path fill="#545454" d="m94.362206 47.181103l-47.181103 0l47.181103 -47.181103z" fill-rule="evenodd"/><path fill="#545454" d="m141.5433 47.181103l-47.1811 0l47.1811 -47.181103z" fill-rule="evenodd"/><path fill="#545454" d="m188.91339 47.181103l-47.181107 0l47.181107 -47.181103z" fill-rule="evenodd"/><path fill="#545454" d="m47.212597 94.362206l-47.1811 0l47.1811 -47.181103z" fill-rule="evenodd"/><path fill="#545454" d="m94.3937 94.362206l-47.181103 0l47.181103 -47.181103z" fill-rule="evenodd"/><path fill="#545454" d="m141.5748 94.362206l-47.1811 0l47.1811 -47.181103z" fill-rule="evenodd"/><path fill="#545454" d="m188.94489 94.362206l-47.181107 0l47.181107 -47.181103z" fill-rule="evenodd"/><path fill="#545454" d="m47.212597 141.5433l-47.1811 0l47.1811 -47.1811z" fill-rule="evenodd"/><path fill="#545454" d="m94.3937 141.5433l-47.181103 0l47.181103 -47.1811z" fill-rule="evenodd"/><path fill="#545454" d="m141.5748 141.5433l-47.1811 0l47.1811 -47.1811z" fill-rule="evenodd"/><path fill="#545454" d="m188.94489 141.5433l-47.181107 0l47.181107 -47.1811z" fill-rule="evenodd"/><path fill="#545454" d="m47.212597 188.91339l-47.1811 0l47.1811 -47.181107z" fill-rule="evenodd"/><path fill="#545454" d="m94.3937 188.91339l-47.181103 0l47.181103 -47.181107z" fill-rule="evenodd"/><path fill="#545454" d="m141.5748 188.91339l-47.1811 0l47.1811 -47.181107z" fill-rule="evenodd"/><path fill="#545454" d="m188.94489 188.91339l-47.181107 0l47.181107 -47.181107z" fill-rule="evenodd"/></g></svg>